<?xml version="1.0" encoding="utf-8"?>
<!-- Generator: Adobe Illustrator 26.4.0, SVG Export Plug-In . SVG Version: 6.00 Build 0)  -->
<svg version="1.1" id="Layer_1" xmlns="http://www.w3.org/2000/svg" xmlns:xlink="http://www.w3.org/1999/xlink" x="0px" y="0px"
	 viewBox="0 0 578.2 507.5" style="enable-background:new 0 0 578.2 507.5;" xml:space="preserve">
<style type="text/css">
	.st0{fill:#E535AB;}
</style>
<g id="rsSfFf.tif">
	
		<image style="overflow:visible;" width="894" height="1004" id="Layer_0_00000086651093812381008030000002269083264089200297_" xlink:href="99385D8E87DCBA09.png"  transform="matrix(0.498 0 0 0.498 67.7968 2.5177)">
	</image>
</g>
<g>
	<path class="st0" d="M303.9,258.1c8.2-5,13.7-14.1,13.7-24.5c0-15.8-12.8-28.7-28.7-28.7c-15.8,0-28.7,12.8-28.7,28.7
		c0,10.4,5.5,19.4,13.7,24.5c-35.4,6-36.1,32.9-36.1,32.9s22.9,15.2,51.1,15.2c28.2,0,51.1-15.2,51.1-15.2S339.3,264.1,303.9,258.1z
		"/>
	<path class="st0" d="M261.7,255.4c-3.6-3.2-8.9-6.1-16.7-7.4c5.5-3.4,9.2-9.4,9.2-16.3c0-10.6-8.6-19.2-19.2-19.2
		c-10.6,0-19.2,8.6-19.2,19.2c0,6.9,3.7,13,9.2,16.3c-23.7,4-24.1,22-24.1,22s15.1,10,33.7,10.2c0.8-2,1.8-4.1,3.2-6.3
		C241.7,267.6,248.8,260,261.7,255.4z"/>
	<path class="st0" d="M352.9,248c5.5-3.4,9.2-9.4,9.2-16.3c0-10.6-8.6-19.2-19.2-19.2c-10.6,0-19.2,8.6-19.2,19.2
		c0,6.9,3.7,13,9.2,16.3c-7.8,1.3-13.1,4.2-16.7,7.4c13,4.6,20.1,12.2,23.9,18.4c1.4,2.2,2.4,4.4,3.2,6.3C362,280,377,270,377,270
		S376.6,252,352.9,248z"/>
</g>
</svg>
